<svg width="1200" height="900" viewBox="0 0 1200 900" fill="none" xmlns="http://www.w3.org/2000/svg">
  <rect width="1200" height="900" rx="56" fill="#EFE9F6"/>
  <rect x="70" y="70" width="1060" height="760" rx="48" fill="#FBFAFF"/>
  <circle cx="920" cy="208" r="168" fill="#7F78B8" fill-opacity="0.22"/>
  <circle cx="236" cy="696" r="228" fill="#88A7B7" fill-opacity="0.2"/>
  <path d="M257 658C257 503.913 381.913 379 536 379H659C813.087 379 938 503.913 938 658V658C938 712.676 893.676 757 839 757H356C301.324 757 257 712.676 257 658V658Z" fill="#4C5C7A"/>
  <path d="M347 624C347 525.693 426.693 446 525 446H668C766.307 446 846 525.693 846 624V624C846 659.346 817.346 688 782 688H411C375.654 688 347 659.346 347 624V624Z" fill="#DDE7F0"/>
  <path d="M583 247C614.48 212.059 630.22 176.952 630.22 141.678C672.514 166.469 701.278 191.089 716.514 215.539C731.785 239.988 739.42 267.889 739.42 299.24C739.42 341.665 724.262 377.413 693.945 406.484C663.63 435.556 625.999 450.09 581.053 450.09C545.293 450.09 515.398 440.347 491.369 420.861C467.34 401.375 455.325 375.849 455.325 344.282C455.325 322.112 461.586 301.164 474.112 281.438C486.639 261.71 499.333 249.705 512.194 245.421C514.055 282.971 524.216 313.736 542.677 337.717C561.138 361.699 575.93 377.051 587.053 383.772C587.053 355.075 585.602 333.791 582.7 319.924C579.798 306.058 573.775 284.876 564.632 256.381L583 247Z" fill="#7F78B8"/>
  <text x="160" y="196" fill="#4C4A69" font-family="Arial, Helvetica, sans-serif" font-size="76" font-weight="700">Wild Card</text>
  <text x="160" y="258" fill="#6B6888" font-family="Arial, Helvetica, sans-serif" font-size="30">Curious, expressive, and open to surprise.</text>
</svg>
